<?xml version="1.0" standalone="no"?>
<!DOCTYPE svg PUBLIC "-//W3C//DTD SVG 20010904//EN"
 "http://www.w3.org/TR/2001/REC-SVG-20010904/DTD/svg10.dtd">
<svg version="1.0" xmlns="http://www.w3.org/2000/svg"
 width="512.000000pt" height="512.000000pt" viewBox="0 0 512.000000 512.000000"
 preserveAspectRatio="xMidYMid meet">
<metadata>
Created by potrace 1.11, written by Peter Selinger 2001-2013
</metadata>
<g transform="translate(0.000000,512.000000) scale(0.100000,-0.100000)"
fill="#000000" stroke="none">
<path d="M2501 4803 c-65 -60 -28 -163 58 -163 70 0 113 58 91 125 -22 65 -98
85 -149 38z"/>
<path d="M1885 4602 c-60 -18 -132 -40 -159 -47 -26 -8 -50 -16 -53 -19 -3 -2
39 -47 93 -98 54 -51 107 -103 118 -115 27 -31 33 -29 46 15 14 50 70 296 67
297 -1 1 -51 -14 -112 -33z"/>
<path d="M3276 4428 c3 -95 6 -174 8 -175 2 -2 285 172 293 181 3 3 -293 166
-301 166 -3 0 -3 -78 0 -172z"/>
<path d="M2511 4424 c-27 -35 -27 -65 2 -92 46 -43 117 -13 117 50 0 64 -80
92 -119 42z"/>
<path d="M2281 4306 c118 -122 283 -286 288 -286 14 0 282 278 273 284 -5 3
-69 -54 -141 -126 l-131 -132 -133 132 c-73 73 -139 132 -146 132 -8 0 -12 -2
-10 -4z"/>
<path d="M942 4280 c-64 -39 -58 -129 11 -163 51 -25 98 -10 121 38 43 90 -49
176 -132 125z"/>
<path d="M4060 4252 c-40 -41 -41 -90 -2 -131 15 -17 34 -31 42 -32 41 -4 64
4 92 31 26 27 30 36 25 70 -7 51 -35 80 -86 87 -35 5 -44 2 -71 -25z"/>
<path d="M2532 3954 c-50 -35 -5 -108 52 -83 30 14 36 58 10 83 -19 20 -34 20
-62 0z"/>
<path d="M1270 3920 c-41 -41 -12 -120 45 -120 30 0 75 41 75 68 0 59 -79 93
-120 52z"/>
<path d="M3773 3919 c-44 -16 -57 -83 -23 -114 67 -61 161 33 96 96 -27 26
-42 30 -73 18z"/>
<path d="M729 3628 c-26 -49 -73 -136 -110 -205 -21 -39 -39 -74 -39 -78 0 -6
331 2 337 9 4 4 -1 13 -91 163 -89 147 -82 139 -97 111z"/>
<path d="M1623 3587 c-31 -13 -38 -43 -19 -72 20 -31 59 -33 79 -5 31 45 -11
99 -60 77z"/>
<path d="M3442 3564 c-26 -18 -28 -41 -7 -70 12 -18 31 -23 66 -15 15 3 26 48
16 67 -20 37 -41 42 -75 18z"/>
<path d="M4339 3379 c-63 -66 -113 -124 -112 -127 2 -7 287 -81 314 -82 13 0
8 27 -32 161 -26 89 -50 163 -52 165 -2 3 -55 -50 -118 -117z"/>
<path d="M2176 3168 c-12 -21 -105 -183 -153 -268 -11 -19 -59 -104 -107 -188
-57 -102 -84 -158 -78 -165 5 -7 23 -37 39 -67 17 -30 94 -165 171 -300 l141
-245 359 0 358 0 77 135 c43 74 84 146 92 160 68 115 185 326 185 332 0 5 -80
148 -177 318 l-177 310 -358 0 -358 0 -14 -22z m750 -58 c18 -30 44 -77 59
-105 15 -27 36 -62 46 -77 11 -14 19 -29 19 -32 0 -3 14 -29 31 -58 18 -29 46
-78 62 -108 17 -30 45 -80 63 -110 l33 -55 -34 -60 c-18 -33 -42 -76 -54 -95
-11 -19 -24 -42 -28 -50 -4 -8 -20 -37 -36 -65 -17 -27 -46 -79 -65 -115 -19
-36 -41 -72 -48 -81 -8 -8 -14 -19 -14 -22 0 -5 -55 -100 -67 -116 -1 -2 -154
-4 -339 -5 -262 -1 -341 2 -355 12 -11 7 -19 17 -19 21 0 4 -39 75 -86 157
-48 82 -98 169 -112 194 -14 25 -47 83 -74 130 -26 46 -48 88 -48 93 0 6 13
31 28 56 16 25 32 53 36 61 4 8 12 24 19 35 7 11 44 75 82 143 39 68 75 131
80 140 6 10 30 52 54 94 l43 75 346 -1 346 -1 32 -55z"/>
<path d="M2138 2807 c-73 -127 -134 -235 -136 -241 -1 -6 40 -85 93 -175 52
-90 95 -165 95 -166 0 -5 68 -116 78 -128 8 -9 80 -12 281 -11 149 0 272 2
273 5 2 2 13 18 26 36 12 18 22 34 22 36 0 2 51 92 114 201 l115 198 -24 41
c-13 23 -66 116 -119 206 -53 90 -96 166 -96 168 0 3 -9 17 -20 33 l-20 28
-274 -1 -275 0 -133 -230z"/>
<path d="M810 2881 c0 -5 59 -68 131 -139 l132 -130 -131 -133 c-72 -73 -128
-137 -125 -142 3 -5 69 54 147 132 l141 141 -140 140 c-133 133 -155 152 -155
131z"/>
<path d="M4136 2751 l-138 -138 139 -143 c77 -79 143 -138 146 -133 4 6 -52
70 -124 143 l-130 134 135 132 c118 116 141 145 117 144 -3 0 -68 -63 -145
-139z"/>
<path d="M290 2708 c-54 -29 -65 -101 -22 -148 59 -66 162 -24 162 67 0 64
-81 111 -140 81z"/>
<path d="M4720 2707 c-54 -27 -65 -100 -22 -148 22 -25 36 -31 67 -31 96 0
130 133 46 177 -36 18 -58 19 -91 2z"/>
<path d="M748 2673 c-24 -28 -27 -47 -13 -80 17 -39 64 -53 100 -29 14 9 25
22 26 29 0 6 2 21 4 32 10 50 -83 88 -117 48z"/>
<path d="M4253 2668 c-43 -48 -1 -126 61 -114 81 17 74 136 -9 136 -20 0 -39
-8 -52 -22z"/>
<path d="M1243 2669 c-32 -12 -44 -40 -30 -70 26 -52 107 -21 93 35 -8 32 -34
46 -63 35z"/>
<path d="M3823 2669 c-58 -22 -25 -114 34 -94 34 13 48 57 24 78 -26 23 -35
25 -58 16z"/>
<path d="M557 2006 c29 -102 74 -251 81 -269 6 -16 25 0 112 94 58 61 111 118
119 126 7 8 12 16 10 18 -3 3 -63 17 -306 75 l-31 7 15 -51z"/>
<path d="M4175 1870 c39 -70 178 -290 184 -290 4 0 18 21 31 48 13 26 47 91
77 145 29 54 53 100 53 103 0 3 -78 4 -174 2 -96 -2 -173 -5 -171 -8z"/>
<path d="M3436 1728 c-22 -31 -20 -54 5 -71 41 -29 99 15 77 57 -22 42 -58 48
-82 14z"/>
<path d="M1612 1722 c-20 -13 -23 -54 -5 -74 23 -26 60 -23 79 7 15 23 15 27
0 50 -16 25 -49 32 -74 17z"/>
<path d="M3752 1420 c-37 -35 -26 -92 22 -118 24 -12 63 0 82 26 48 62 -46
145 -104 92z"/>
<path d="M1270 1400 c-38 -38 -21 -104 29 -115 73 -16 118 67 65 119 -22 22
-70 20 -94 -4z"/>
<path d="M2527 1342 c-24 -27 -21 -59 8 -78 23 -15 27 -15 50 0 46 30 26 96
-28 96 -8 0 -21 -8 -30 -18z"/>
<path d="M4083 1123 c-75 -36 -68 -147 11 -173 82 -27 151 54 115 133 -20 45
-79 63 -126 40z"/>
<path d="M954 1110 c-57 -23 -73 -113 -29 -154 32 -30 65 -36 102 -21 34 15
48 31 57 69 18 75 -57 136 -130 106z"/>
<path d="M2418 970 c-75 -77 -133 -142 -127 -146 6 -3 69 54 141 126 l130 133
138 -138 c76 -75 140 -133 143 -128 6 9 -269 293 -282 293 -3 -1 -68 -64 -143
-140z"/>
<path d="M1674 884 c-76 -47 -142 -89 -146 -93 -4 -4 9 -15 30 -26 20 -11 88
-48 151 -82 62 -35 115 -63 117 -63 4 0 -6 343 -10 347 -2 2 -65 -36 -142 -83z"/>
<path d="M3179 930 c-3 -23 -13 -66 -43 -190 -20 -79 -33 -146 -31 -148 2 -2
37 6 77 17 137 41 243 75 247 78 3 2 -17 24 -45 49 -27 26 -84 80 -126 122
-43 42 -78 74 -79 72z"/>
<path d="M2524 902 c-15 -10 -34 -47 -34 -67 0 -24 46 -65 74 -65 56 0 87 79
46 120 -20 20 -65 26 -86 12z"/>
<path d="M2496 444 c-23 -24 -31 -52 -27 -94 1 -8 15 -27 32 -42 69 -64 171
-2 152 92 -13 69 -106 94 -157 44z"/>
</g>
</svg>
